<svg viewBox="0 0 42 42" fill="none" xmlns="http://www.w3.org/2000/svg">
    <path d="M1.1242 20.8385L1 21.0058L1.1242 21.1731C6.08112 27.8497 14.6653 35.8258 20.8169 40.8681L20.9919 41.0115L21.1692 40.8708C27.5334 35.8199 35.507 27.8461 40.8589 21.1815L41 21.0058L40.8589 20.83C35.507 14.1654 27.5334 6.19165 21.1692 1.14072L20.9919 1L20.8169 1.14349C14.6653 6.18581 6.08112 14.1618 1.1242 20.8385Z"
          fill="#8A1538" stroke="#8A1538" stroke-width="0.561293"/>
    <path fill-rule="evenodd" clip-rule="evenodd"
          d="M14.3333 19.5C14.3333 18.9478 14.7479 18.5 15.2592 18.5H30.0741C30.5854 18.5 31 18.9478 31 19.5V28C31 28.2762 30.7927 28.5 30.537 28.5C30.2813 28.5 30.0741 28.2762 30.0741 28V19.5H15.2592V28C15.2592 28.2762 15.052 28.5 14.7963 28.5C14.5406 28.5 14.3333 28.2762 14.3333 28V19.5Z"
          fill="white" stroke="white" stroke-width="0.625" stroke-linecap="round"/>
    <path d="M12.2864 16.9292L12.2375 16.9648L12.2562 17.0224L13.0191 19.3702L13.0378 19.4278H13.0983H15.5672H15.6277L15.6464 19.3702L16.4093 17.0224L16.4281 16.9648L16.3791 16.9292L14.3817 15.4777L14.3327 15.4421L14.2837 15.4777L12.2864 16.9292ZM15.6949 17.2027L15.1742 18.8039H13.4904L12.9706 17.2027L14.3327 16.2129L15.6949 17.2027Z"
          fill="white" stroke="white" stroke-width="0.166667"/>
    <path d="M9.55765 15.9289C8.59808 18.5666 9.95757 21.4833 12.5954 22.443C13.1695 22.6521 13.7563 22.7509 14.3336 22.7509C16.4096 22.7509 18.3589 21.4689 19.1094 19.4052H19.1095C20.0681 16.7675 18.7086 13.8509 16.0708 12.8912C15.5243 12.6921 14.9672 12.5931 14.4169 12.584V12.5833H14.3336H14.2502V12.584C12.2056 12.6178 10.2982 13.8929 9.55765 15.9289ZM9.55765 15.9289L9.63598 15.9574L9.55765 15.9289ZM18.3956 19.5036L18.3957 19.4767L18.2898 19.506L16.1372 20.1013L16.1071 20.1096L16.0899 20.1356L14.8584 21.9986L14.7978 22.0904L14.8265 22.0996C14.6636 22.1178 14.4984 22.127 14.3317 22.127C14.166 22.127 14.0012 22.1177 13.8375 22.0994L13.8655 22.0904L13.805 21.9987L12.5753 20.1357L12.5582 20.1096L12.528 20.1013L10.3764 19.506L10.2704 19.4766L10.2705 19.4987C10.1369 19.2023 10.0352 18.8913 9.96848 18.5716L9.98232 18.5907L10.0507 18.5048L11.4423 16.758L11.4617 16.7336L11.4604 16.7024L11.3613 14.4716L11.3564 14.3618L11.3378 14.368C11.5779 14.1504 11.8408 13.9593 12.1215 13.7984L12.1088 13.8157L12.2118 13.8543L14.3034 14.6372L14.3327 14.6481L14.3618 14.6372L16.4534 13.8543L16.5562 13.8159L16.5381 13.7911C16.8287 13.9561 17.0956 14.1511 17.3358 14.3705L17.3097 14.3619L17.3049 14.4717L17.2067 16.7024L17.2054 16.7336L17.2248 16.758L18.6154 18.5048L18.6837 18.5906L18.7017 18.5657C18.6585 18.7756 18.5998 18.985 18.5243 19.1926C18.4847 19.2983 18.4418 19.4021 18.3956 19.5036ZM17.8376 16.5281L17.8952 15.2117L18.0817 15.2731C18.4902 15.9116 18.7278 16.6435 18.7729 17.4021L18.6585 17.5599L17.8376 16.5281ZM13.0979 13.5196L13.2138 13.3607C13.9405 13.1725 14.7238 13.1725 15.4505 13.3607L15.5664 13.5196L14.3326 13.9816L13.0979 13.5196ZM10.7692 15.2109L10.8277 16.5281L10.006 17.5588L9.89232 17.4013C9.9374 16.6426 10.175 15.9106 10.5835 15.2721L10.7692 15.2109ZM12.7055 21.8086C12.0013 21.5315 11.3796 21.0791 10.8965 20.4918L10.896 20.2969L12.1668 20.6479L12.8931 21.7477L12.7055 21.8086ZM16.4984 20.6489L17.7693 20.2978L17.7687 20.4918C17.2857 21.0791 16.6638 21.5316 15.9586 21.8086L15.7714 21.7484L16.4984 20.6489Z"
          fill="white" stroke="white" stroke-width="0.166667"/>
</svg>
