<svg viewBox="0 0 20 20" fill="none" xmlns="http://www.w3.org/2000/svg">
    <path d="M10 1.875C5.51992 1.875 1.875 5.51992 1.875 10C1.875 14.4801 5.51992 18.125 10 18.125C14.4801 18.125 18.125 14.4801 18.125 10C18.125 5.51992 14.4801 1.875 10 1.875ZM15.5859 13.75H13.8195C13.7648 13.7499 13.7111 13.7354 13.6637 13.708C13.6163 13.6805 13.577 13.6412 13.5496 13.5938L12.9191 12.5125C12.8776 12.4418 12.8656 12.3576 12.8855 12.2781L13.466 9.9375C13.4777 9.89034 13.5001 9.84654 13.5317 9.80959C13.5632 9.77263 13.6029 9.74353 13.6477 9.72461L14.7453 9.25977C14.799 9.23702 14.8579 9.22972 14.9154 9.23869C14.973 9.24767 15.0269 9.27256 15.0711 9.31055L16.6973 10.7098C16.7374 10.7443 16.768 10.7884 16.7864 10.838C16.8048 10.8876 16.8103 10.9411 16.8023 10.9934C16.6677 11.9173 16.3449 12.8038 15.8539 13.598C15.8262 13.6444 15.7869 13.6827 15.7399 13.7093C15.693 13.736 15.6399 13.75 15.5859 13.75ZM5.25469 9.26289L6.35234 9.72773C6.39708 9.74666 6.4368 9.77576 6.46833 9.81271C6.49986 9.84967 6.52234 9.89346 6.53398 9.94062L7.11445 12.2812C7.13443 12.3608 7.12237 12.4449 7.08086 12.5156L6.45039 13.5938C6.42302 13.6412 6.38369 13.6805 6.33632 13.708C6.28895 13.7354 6.2352 13.7499 6.18047 13.75H4.41406C4.36064 13.75 4.3081 13.7364 4.26146 13.7103C4.21482 13.6843 4.17564 13.6467 4.14766 13.6012C3.6567 12.8069 3.3339 11.9204 3.19922 10.9965C3.1913 10.9442 3.19679 10.8907 3.21517 10.8411C3.23354 10.7915 3.26421 10.7474 3.3043 10.7129L4.93047 9.31367C4.97449 9.27598 5.02812 9.25126 5.08538 9.2423C5.14263 9.23333 5.20125 9.24046 5.25469 9.26289V9.26289ZM15.2914 5.85508L14.5855 7.86211C14.5714 7.90313 14.5488 7.94074 14.5193 7.97255C14.4897 8.00436 14.4539 8.02967 14.4141 8.04688L13.2586 8.53633C13.2056 8.55876 13.1474 8.56611 13.0904 8.55756C13.0335 8.54901 12.98 8.5249 12.9359 8.48789L10.7383 6.64453C10.7032 6.61548 10.6748 6.57909 10.6553 6.53793C10.6357 6.49677 10.6254 6.45183 10.625 6.40625V5.09453C10.625 5.04314 10.6377 4.99254 10.662 4.94723C10.6863 4.90192 10.7213 4.86329 10.7641 4.83477L12.4371 3.71992C12.4808 3.69078 12.5311 3.6731 12.5834 3.66853C12.6357 3.66396 12.6883 3.67263 12.7363 3.69375C13.699 4.11362 14.5533 4.74738 15.2344 5.54688C15.2702 5.58867 15.2943 5.63919 15.3043 5.69331C15.3143 5.74743 15.3099 5.80323 15.2914 5.85508V5.85508ZM7.5625 3.71992L9.23594 4.83477C9.27869 4.86329 9.31375 4.90192 9.33801 4.94723C9.36226 4.99254 9.37497 5.04314 9.375 5.09453V6.40625C9.375 6.4519 9.365 6.497 9.34569 6.53837C9.32639 6.57973 9.29826 6.61637 9.26328 6.6457L7.06563 8.48906C7.02152 8.52608 6.96806 8.55019 6.91112 8.55873C6.85418 8.56728 6.79599 8.55993 6.74297 8.5375L5.58594 8.04688C5.54584 8.0299 5.50973 8.00472 5.47993 7.97297C5.45013 7.94122 5.4273 7.90359 5.41289 7.8625L4.70703 5.85547C4.68869 5.80344 4.68445 5.74748 4.69474 5.69328C4.70503 5.63907 4.72949 5.58856 4.76562 5.54688C5.44707 4.74657 6.30209 4.11225 7.26562 3.69219C7.3135 3.67171 7.36574 3.66352 7.41758 3.66836C7.46943 3.67321 7.51924 3.69093 7.5625 3.71992V3.71992ZM8.23867 16.5113L7.46797 14.5703C7.45034 14.5262 7.44301 14.4786 7.44653 14.4312C7.45005 14.3839 7.46433 14.3379 7.48828 14.2969L8.08086 13.2812C8.10823 13.2338 8.14756 13.1945 8.19493 13.167C8.2423 13.1396 8.29605 13.1251 8.35078 13.125H11.6492C11.704 13.1251 11.7577 13.1396 11.8051 13.167C11.8524 13.1945 11.8918 13.2338 11.9191 13.2812L12.5121 14.2969C12.5361 14.3379 12.5505 14.3838 12.5541 14.4312C12.5576 14.4786 12.5504 14.5262 12.5328 14.5703L11.7676 16.5105C11.7489 16.558 11.7188 16.6001 11.6801 16.6333C11.6413 16.6664 11.5951 16.6896 11.5453 16.7008C10.5299 16.9338 9.47482 16.9338 8.45937 16.7008C8.40998 16.6895 8.36409 16.6663 8.32564 16.6333C8.28719 16.6003 8.25734 16.5584 8.23867 16.5113V16.5113Z" fill="#8A1538"/>
</svg>
