<svg viewBox="0 0 42 42" fill="none" xmlns="http://www.w3.org/2000/svg">
    <path d="M1.1242 20.8385L1 21.0058L1.1242 21.1731C6.08112 27.8497 14.6653 35.8258 20.8169 40.8681L20.9919 41.0115L21.1692 40.8708C27.5334 35.8199 35.507 27.8461 40.8589 21.1815L41 21.0058L40.8589 20.83C35.507 14.1654 27.5334 6.19165 21.1692 1.14072L20.9919 1L20.8169 1.14349C14.6653 6.18581 6.08112 14.1618 1.1242 20.8385Z"
          fill="#8A1538" stroke="#8A1538" stroke-width="0.561293"/>
    <path fill-rule="evenodd" clip-rule="evenodd"
          d="M14.4828 12H12V16.3448V30H25.6552H29.3793V27.5172H25.4276C25.2541 26.5793 24.9825 25.6599 24.6157 24.7744C23.9295 23.1177 22.9237 21.6123 21.6557 20.3443C20.3877 19.0763 18.8823 18.0705 17.2256 17.3843C16.3401 17.0175 15.4207 16.7459 14.4828 16.5724V12ZM14.4828 19.1069V27.5172H22.8931C22.7538 26.9061 22.563 26.3063 22.322 25.7245C21.7605 24.369 20.9375 23.1374 19.9001 22.0999C18.8626 21.0625 17.631 20.2395 16.2755 19.678C15.6937 19.437 15.0939 19.2462 14.4828 19.1069Z"
          fill="white"/>
</svg>
