<svg viewBox="0 0 603 1293" fill="none" xmlns="http://www.w3.org/2000/svg">
    <path d="M415.498 351.02C409.298 455.26 336.005 609.22 307.325 665.887C300.271 679.82 295.925 687.874 295.925 687.874H256.071C267.498 670.794 278.551 653.087 289.085 634.98C379.258 480.02 431.445 295.447 358.925 216.02C297.111 148.314 221.071 178.207 188.525 196.167C178.418 201.741 172.498 206.167 172.498 206.167V180.02C184.098 174.7 195.298 170.314 206.085 166.794C351.845 119.234 422.671 230.114 415.498 351.02" fill="#83113A"/>
    <path fill-rule="evenodd" clip-rule="evenodd" d="M163.498 354.874C151.951 297.647 164.912 241.781 188.525 196.167C193.885 185.807 199.792 175.981 206.085 166.794C243.058 112.781 293.405 80.5805 324.205 91.3005C336.448 95.5591 347.687 99.8789 358.057 103.864C397.784 119.133 424.749 129.497 446.498 112.727C446.498 112.727 455.072 100.167 463.072 108.727C463.463 109.147 464.386 109.901 465.747 111.012C492.18 132.606 684.058 289.352 367.632 761.874C367.632 761.874 341.285 722.567 307.325 665.887C301.445 656.074 295.325 645.727 289.085 634.98C238.618 548.1 179.591 434.634 163.498 354.874ZM537.341 91.8508C518.403 75.9766 495.327 59.4664 477.209 55.3005C464.135 52.2943 449.322 55.4012 432.937 58.8379C402.593 65.2024 366.855 72.6981 326.78 44.5938C265.066 1.30051 202.494 28.1672 121.352 113.3C121.352 113.3 242.448 -2.69959 301.042 43.0204C359.637 88.7271 440.78 116.167 463.066 97.3005C464.057 96.4621 465.021 95.6347 465.965 94.8242C483.528 79.7492 494.263 70.5344 545.712 105.251V105.261C596.512 190.647 603.338 282.514 601.925 357.874C600.205 448.727 392.351 806.167 392.351 806.167C393.098 807.367 393.845 808.554 394.578 809.74C393.512 808.727 392.538 807.781 391.885 806.767C389.565 803.18 392.258 801.954 392.258 801.954C390.315 797.326 385.424 800.549 383.167 802.036C382.622 802.395 382.23 802.653 382.072 802.674C381.258 802.794 376.392 795.14 376.392 795.14C370.992 796.42 369.645 805.461 369.645 805.461C369.032 805.407 364.765 800.34 364.765 800.34C359.104 807.496 368.178 822.131 376.107 834.919C378.786 839.239 381.334 843.348 383.138 846.887C390.272 860.914 384.152 865.807 384.152 865.807C398.738 865.3 391.952 846.514 389.045 842.514C388.417 841.649 387.42 840.513 386.224 839.149L386.222 839.147C381.884 834.202 374.929 826.271 373.445 817.514C371.552 806.327 384.232 805.901 388.458 809.1C392.698 812.314 399.992 822.38 392.032 822.927C384.085 823.474 384.578 814.087 384.578 814.087C380.725 812.794 378.898 816.687 380.978 820.887C388.178 832.94 399.592 829.354 400.152 821.247C400.218 820.274 400.178 819.38 400.058 818.554C407.512 830.58 414.551 842.1 421.218 853.14C416.472 850.954 411.525 850.541 407.632 851.194C400.125 852.447 398.685 862.274 402.445 872.834C404.804 879.452 417.581 891.846 429.114 903.034C435.96 909.674 442.367 915.89 445.898 920.221C455.378 931.834 452.698 945.607 452.698 945.607C452.698 945.607 463.098 935.207 459.725 919.967C474.792 947.754 486.618 972.274 495.605 994.887C492.712 997.247 487.058 1002.46 484.525 1009.09C484.525 1009.09 493.712 1005.58 499.352 1004.62C501.205 1009.62 502.911 1014.53 504.485 1019.35C485.872 1019.17 484.525 1025.05 484.525 1025.05C497.592 1028.21 496.725 1042.69 496.725 1042.69C502.365 1042.42 506.658 1033.37 506.658 1033.37C507.298 1033.37 508.205 1034.05 509.138 1034.91V1034.93C510.858 1041.21 512.338 1047.37 513.578 1053.49C511.578 1052.94 509.272 1052.03 507.085 1050.13C499.898 1043.87 496.485 1048.87 496.485 1048.87C496.485 1048.87 501.445 1055.67 503.005 1058.89C504.325 1061.63 510.365 1066.13 515.272 1062.47C522.685 1105.93 518.885 1147.09 508.072 1199.59C496.858 1254.06 452.138 1277.93 403.685 1287.19C391.578 1281.77 378.498 1286.29 369.072 1291.54C364.112 1291.89 359.178 1292.11 354.325 1292.23C373.008 1273.78 397.222 1276.74 410.948 1278.42C414.952 1278.91 418.063 1279.29 419.885 1278.99C429.072 1277.53 436.045 1264.91 436.045 1264.91C434.032 1265.59 431.152 1264.71 431.152 1264.71C447.512 1249.15 444.632 1240.58 444.632 1240.58C443.778 1242.85 437.338 1246.01 436.925 1246.19C446.032 1230.91 440.712 1227.07 440.712 1227.07C437.046 1236.84 434.199 1235.79 431.495 1234.79L431.493 1234.78C431.227 1234.69 430.962 1234.59 430.698 1234.5C406.912 1224.83 399.365 1254.79 409.285 1261.1C418.952 1267.23 422.138 1254.27 422.285 1253.61C412.512 1264.78 411.712 1245.14 422.165 1241.51C432.618 1237.89 436.245 1243.39 429.672 1256.13C423.098 1268.87 413.178 1273.03 388.365 1269.27C372.845 1266.93 357.685 1281.27 348.525 1292.34C346.645 1292.37 344.778 1292.38 342.938 1292.35L358.592 1273.17C345.272 1271.94 331.618 1282.99 322.965 1291.83C319.485 1291.67 316.098 1291.46 312.805 1291.22C325.258 1279.25 340.885 1263.91 340.885 1263.91C343.032 1266.33 348.938 1269.41 359.925 1265.93C370.925 1262.43 376.565 1247.95 377.898 1241.38C379.245 1234.81 384.605 1228.37 389.432 1226.9C394.258 1225.42 394.258 1234.27 394.258 1234.27C402.712 1224.21 399.632 1213.22 390.912 1212.01C383.258 1210.95 376.232 1223.84 372.626 1230.45C372.123 1231.37 371.687 1232.17 371.325 1232.79C368.472 1237.73 359.952 1245.69 359.418 1246.18C367.845 1234.25 372.272 1214.29 372.272 1214.29C370.125 1217.91 348.258 1239.77 348.258 1239.77C346.899 1235.33 356.851 1222.67 361.196 1217.14L361.202 1217.13L361.223 1217.1C361.981 1216.14 362.565 1215.39 362.885 1214.95C365.032 1212.01 367.845 1198.99 355.645 1198.46C343.432 1197.93 339.818 1210.13 339.818 1210.13C342.232 1206.91 349.872 1206.51 351.218 1212.14C352.552 1217.78 343.965 1226.22 334.178 1231.73C324.392 1237.22 325.058 1245.94 326.138 1249.15C327.205 1252.38 333.112 1259.62 333.112 1259.62C321.978 1275.31 299.578 1290.06 299.578 1290.06L299.525 1290.1C275.778 1287.77 259.925 1284.45 259.925 1284.45C-38.3685 1258.73 207.205 799.727 207.205 799.727C31.0715 492.447 -15.2218 393.447 4.07149 257.167C23.3515 120.874 110.778 71.5939 110.778 71.5939L119.352 70.7272C122.757 70.3882 130.49 61.6633 139.704 51.2682C153.685 35.494 171.075 15.8738 181.925 15.8738C199.925 15.8738 231.632 11.5939 259.072 7.30052C286.498 3.02052 340.498 -4.6995 355.072 3.87383C369.632 12.4472 434.778 39.8739 461.352 41.5939C465.324 41.849 468.817 42.0278 471.937 42.1876C489.693 43.0966 495.377 43.3876 508.498 53.5939C519.271 66.1139 528.845 78.8871 537.338 91.8471L537.341 91.8508ZM449.685 901.874C442.738 889.487 435.178 876.5 426.965 862.74C423.578 862.634 420.165 864.487 421.218 873.007C422.248 881.323 428.061 885.244 435.188 890.051L435.188 890.051C439.785 893.151 444.927 896.62 449.685 901.874ZM218.779 817.727C218.779 817.727 59.3514 1176.45 196.923 1207.3C334.494 1238.17 311.351 961.727 218.779 817.727ZM317.326 789.767C315.27 787.887 311.157 794.954 311.157 794.954C303.825 778.367 294.616 773.847 293.454 773.583C292.292 773.314 290.324 774.301 293.812 782.701C297.298 791.114 305.949 797.394 305.949 797.394C302.932 797.794 300.785 802.954 301.992 803.687C303.2 804.434 307.29 807.514 310.642 810.194C313.996 812.874 316.946 813.007 318.489 811.541C320.032 810.06 319.226 807.114 319.226 807.114C323.184 809.794 326.804 803.98 322.422 799.954C319.823 797.572 319.238 795.093 318.763 793.077C318.437 791.695 318.162 790.532 317.326 789.767ZM350.677 846.674C350.677 846.674 337.399 835.74 334.181 830.047C330.962 824.34 325.283 817.754 320.098 817.66C314.911 817.567 316.433 825.714 325.463 830.807C334.493 835.9 334.851 837.247 334.762 839.394C334.671 841.54 339.053 847.967 342.541 849.487C346.027 851.007 353.09 855.834 354.074 858.074C355.058 860.314 361.495 868.9 371.867 868.087C382.238 867.287 380.629 851.007 378.305 848.327C378.084 848.073 377.821 847.775 377.526 847.444C377.372 847.271 377.209 847.089 377.039 846.899L376.612 846.423L376.61 846.42C373.615 843.079 368.872 837.787 368.379 835.874C367.777 833.527 361.406 822.874 357.918 820.727C356.415 819.802 355.223 819.612 354.193 819.448C352.833 819.232 351.753 819.06 350.609 817.3C348.598 814.22 339.231 802.727 333.778 803.047C328.323 803.354 331.99 810.954 337.533 814.26C337.728 814.377 337.936 814.5 338.156 814.63C338.356 814.748 338.564 814.871 338.782 815L338.795 815.007C345.174 818.768 359.209 827.042 362.21 835.594C362.21 835.594 349.514 823.474 344.059 820.7C338.606 817.927 332.973 816.767 332.883 819.9C332.881 819.979 332.878 820.056 332.876 820.133L332.872 820.237C332.761 823.178 332.67 825.615 350.677 846.674ZM307.222 832.994C313.929 828.967 329.083 838.22 329.083 838.22L329.754 838.5C321.459 837.622 320.139 839.371 318.887 841.031C318.142 842.018 317.421 842.974 315.27 843.327C309.502 844.26 300.517 837.02 307.222 832.994ZM350.637 811.007C350.637 811.007 337.645 798.9 339.716 791.367C341.786 783.82 351.18 790.527 351.828 796.34C352.069 798.504 351.344 799.454 350.594 800.437C349.333 802.088 348.002 803.831 351.076 811.58L350.637 811.007ZM359.527 869.794C372.939 878.02 378.305 872.287 378.305 872.287C376.653 886.807 358.455 878.554 354.699 875.327C353.89 874.634 352.838 873.554 351.577 872.258C346.992 867.546 339.631 859.982 331.006 857.807C320.009 855.034 318.578 867.647 321.439 872.114C324.299 876.58 333.769 884.647 334.939 876.767C336.111 868.874 326.714 868.62 326.714 868.62C325.731 864.687 329.754 863.167 333.778 865.58C345.222 873.714 340.751 884.807 332.615 884.727C326.8 884.66 323.999 881.215 321.634 878.306C320.69 877.144 319.815 876.069 318.846 875.327C315.449 872.74 314.018 875.327 314.018 875.327C309.545 873.025 313.163 868.388 314.822 866.262C315.219 865.753 315.504 865.388 315.538 865.234C315.717 864.42 308.474 858.967 308.474 858.967C310.173 853.701 319.294 853.074 319.294 853.074C319.294 852.447 314.582 847.794 314.582 847.794C322.148 842.715 336.003 852.905 348.119 861.817C352.226 864.838 356.133 867.711 359.527 869.794ZM372.939 926.66C372.939 926.66 364.178 922.54 364.714 905.727C365.25 888.927 381.881 882.487 399.047 906.447C405.647 915.658 408.811 924.209 411.617 931.795C416.111 943.941 419.69 953.612 434.99 959.554C434.99 959.554 431.235 966.887 418.539 963.847C405.843 960.807 401.194 949.367 395.829 928.62C390.463 907.874 369.185 909.127 372.939 926.66ZM412.906 917.354C411.833 913.594 395.74 884.727 395.74 884.727C433.561 908.767 443.396 933.807 444.469 937.74C444.827 939.052 444.449 940.19 444.025 941.467C443.177 944.021 442.145 947.132 446.436 953.301C452.873 962.554 475.137 1013.25 477.82 1023.03C479.256 1028.28 481.848 1030.76 484.192 1033C486.224 1034.94 488.07 1036.7 488.817 1039.94C490.426 1046.91 488.817 1063.67 488.817 1063.67C468.69 1048.69 473.165 1037.77 473.849 1036.09L473.885 1036.01C474.421 1034.66 475.137 1030.82 473.528 1027.33C447.509 958.394 438.925 948.66 436.779 948.647C426.407 949.18 413.979 921.114 412.906 917.354ZM466.642 939.527C466.642 939.527 458.238 955.98 463.781 970.287C466.055 976.156 468.54 981.392 470.643 985.824C473.666 992.194 475.9 996.902 475.583 999.434C475.583 999.434 483.451 998.007 486.67 985.127C489.02 975.723 478.12 958.415 471.439 947.807C468.969 943.886 467.076 940.88 466.642 939.527ZM437.673 1002.65C434.99 991.927 424.977 969.487 424.977 969.487C448.227 970.542 452.407 983.204 454.05 988.179L454.05 988.181C454.214 988.677 454.352 989.097 454.482 989.421C455.913 992.994 461.889 1007.83 461.889 1007.83C456.063 1013.91 440.355 1013.38 437.673 1002.65ZM422.697 1069.98C427.928 1046.65 461.889 1022.37 461.889 1022.37C426.737 1019.91 411.029 1053.35 411.029 1053.35C411.029 1053.35 414.964 1053.35 414.694 1054.15C414.426 1054.95 408.794 1066.67 408.794 1066.67C410.85 1067.38 420.328 1061.58 420.328 1061.58C419.522 1064.34 422.697 1069.98 422.697 1069.98ZM472.454 1032.15C472.454 1032.15 461.099 1035.91 453.409 1048.79C445.719 1061.66 447.598 1068.63 452.873 1072.3C452.873 1072.3 463.555 1064.79 460.361 1055.58C460.361 1055.58 472.365 1055.5 472.99 1055.05C473.119 1054.96 472.863 1054.4 472.438 1053.48C470.794 1049.92 466.628 1040.89 472.454 1032.15ZM475.851 1057.46C475.851 1057.46 478.713 1069.09 475.315 1075.61C471.918 1082.14 465.57 1085.9 459.221 1079.1C459.221 1079.1 464.407 1077.75 465.927 1073.74C467.447 1069.71 472.543 1057.46 475.851 1057.46ZM476.478 1086.34C482.11 1082.14 480.411 1063.01 480.411 1063.01C481.127 1063.01 491.051 1070.78 489.174 1079.37C487.297 1087.95 476.478 1086.34 476.478 1086.34ZM494.449 1074.73C494.449 1074.73 491.767 1090.99 496.685 1092.25C501.602 1093.5 504.821 1086.45 501.87 1083.49C498.919 1080.53 494.986 1075.91 494.449 1074.73ZM506.878 1078.38C509.47 1077.94 514.12 1071.14 514.12 1071.14C514.12 1071.14 511.706 1071.33 509.202 1070.61C506.698 1069.89 496.864 1060.23 496.864 1060.23C494.449 1076.86 504.285 1078.83 506.878 1078.38ZM362.746 968.727C377.366 949.007 358.186 932.247 358.186 932.247C358.186 932.247 376.025 937.34 376.561 952.5C377.098 967.647 362.746 968.727 362.746 968.727ZM343.166 957.594C343.166 957.594 342.37 972.927 353.09 970.06C363.812 967.194 367.576 950.221 354.566 937.741C341.557 925.274 328.548 936.541 327.742 940.421C327.742 940.421 319.428 933.821 319.294 932.034C319.294 932.034 310.441 936.54 321.037 955.18C321.037 955.18 310.576 955.047 309.905 952.767C309.905 952.767 303.87 963.354 322.781 976.101C322.781 976.101 315.504 980.127 314.582 980.394C314.582 980.394 319.83 994.607 336.862 993.394C343.617 992.918 350.392 990.88 357.214 988.828C367.595 985.706 378.083 982.552 388.766 984.821C406.469 988.567 418.942 1007.07 410.761 1031.02C409.553 1033.5 411.029 1036.81 411.7 1037.26C411.7 1037.26 418.272 1026.7 418.093 1015.35C417.913 1003.99 416.796 992.06 396.276 980.794C387.096 975.753 376.44 976.653 366 977.535C353.105 978.624 340.54 979.685 331.498 969.487C315.136 951.021 344.373 929.421 353.09 949.274C354.7 953.434 354.029 967.114 343.166 957.594ZM345.58 1032.15C373.656 1003.19 408.794 1013.21 408.794 1013.21C385.264 975.5 350.408 1003.99 350.408 1003.99C352.465 1003.63 355.058 1004.53 355.058 1004.53C345.937 1006.77 338.785 1018.66 338.785 1018.66C339.41 1018.3 350.408 1018.74 350.408 1018.74C347.189 1021.07 345.58 1032.15 345.58 1032.15ZM289.385 1250.63C289.385 1250.63 287.91 1224.89 263.233 1213.62C263.233 1213.62 268.866 1212.27 273.024 1214.42C273.024 1214.42 271.884 1207.38 270.341 1206.11C270.341 1206.11 279.26 1209.26 282.881 1214.15C282.881 1214.15 283.485 1211.67 282.546 1210.61C282.546 1210.61 309.369 1227.53 289.385 1250.63ZM304.34 1201.07C301.858 1194.43 310.374 1192.83 310.374 1192.83C307.268 1197.21 311.873 1199.62 315.092 1198.99C318.31 1198.37 322.513 1192.57 319.741 1186.57C316.969 1180.58 306.061 1177.9 299.713 1188.09C293.364 1198.29 302.394 1212.06 308.922 1219.83C315.449 1227.61 316.88 1237.54 310.621 1247.82C304.362 1258.1 284.289 1264.78 281.272 1262.37C278.254 1259.95 281.741 1257.34 284.692 1257.34C299.31 1257.61 307.49 1241.21 307.313 1232.79C307.176 1226.4 300.46 1218.19 293.357 1209.51C291.128 1206.78 288.861 1204.01 286.748 1201.23C277.896 1189.61 287.642 1180.94 287.642 1180.94C287.642 1181.79 292.157 1184.91 292.157 1184.91C293.945 1171.5 303.886 1169.07 303.886 1169.07C302.785 1173.38 306.061 1177.9 306.061 1177.9C311.962 1167.17 319.964 1169.22 319.964 1169.22C318.354 1169.13 316.88 1177.07 316.88 1177.07C335.052 1183.31 330.492 1199.47 324.658 1204.77C318.824 1210.06 306.821 1207.71 304.34 1201.07ZM296.225 1286.58C296.225 1286.58 274.767 1270.62 257.599 1273.97C257.599 1273.97 260.282 1269.73 262.429 1269.63C262.429 1269.63 257.331 1265.07 256.258 1264.62C256.258 1264.62 261.713 1263.19 266.63 1265.17C266.63 1265.17 266.183 1263.11 265.467 1262.57C265.467 1262.57 290.726 1266.19 296.225 1286.58ZM303.534 1258.89C307.222 1256.81 317.953 1246.21 317.953 1246.21C318.757 1247.69 321.103 1258.21 318.221 1262.86C315.337 1267.51 301.522 1279.27 301.522 1279.27C301.522 1279.27 298.438 1277.19 295.89 1271.35C293.342 1265.53 299.846 1260.97 303.534 1258.89ZM400.567 1174.06C400.567 1174.06 402.713 1172.79 405.262 1169.07C407.81 1165.34 415.589 1159.43 418.271 1160.91C418.271 1160.91 417.466 1166.07 417.935 1166.34C417.935 1166.34 421.758 1163.53 427.123 1166.27C427.123 1166.27 423.435 1172.05 424.508 1173.71C424.508 1173.71 430.074 1173.91 431.079 1177.34C431.079 1177.34 425.915 1178.47 425.514 1182.83C425.111 1187.19 421.959 1195.45 417.667 1195.58C413.375 1195.71 409.955 1193.1 409.822 1187.73C409.687 1182.37 413.309 1173.51 418.807 1178.67C418.807 1178.67 411.565 1182.23 415.823 1188.01C420.082 1193.77 429.47 1176.33 417.601 1171.78C409.717 1168.75 406.567 1179.71 403.867 1189.1C402.501 1193.85 401.251 1198.2 399.562 1200.14C394.533 1205.9 389.749 1205.79 384.026 1202.66C381.8 1201.45 379.804 1201.58 377.812 1201.72C374.683 1201.93 371.563 1202.15 367.575 1197.13C363.797 1192.37 365.591 1185.96 367.321 1179.77C368.58 1175.27 369.806 1170.89 368.826 1167.35C366.502 1158.94 359.35 1156.71 355.594 1162.25C351.839 1167.79 352.822 1175.49 356.13 1174.67C359.438 1173.87 362.299 1169.31 359.35 1167.17C359.35 1167.17 361.674 1163.59 363.551 1166.63C365.429 1169.67 363.283 1181.82 356.935 1182.01C350.587 1182.19 348.262 1176.47 349.425 1170.39C349.784 1168.52 350.335 1166.97 350.789 1165.7C351.806 1162.85 352.337 1161.36 349.137 1160.55C349.137 1160.55 348.71 1154.47 357.293 1157.33C357.293 1157.33 357.471 1151.79 356.13 1150.54C356.13 1150.54 359.438 1148.22 365.966 1154.65C365.966 1154.65 367.129 1151.42 366.413 1150.13C366.413 1150.13 370.794 1149.65 373.834 1159.93C376.874 1170.21 378.483 1170.03 378.483 1170.03C378.483 1170.03 379.378 1157.33 385.099 1155.46C388.854 1154.23 387.182 1150.99 385.638 1148C384.829 1146.44 384.055 1144.94 384.117 1143.83C384.117 1143.83 389.369 1141.86 391.582 1145.69C391.582 1145.69 391.314 1125.3 394.666 1120.54C398.02 1115.78 400.769 1127.85 399.83 1134.29C399.503 1136.53 398.908 1138.37 398.438 1139.83C397.558 1142.55 397.117 1143.92 399.695 1144.01C403.653 1144.14 404.457 1147.37 404.457 1147.37C404.457 1147.37 399.852 1154.74 399.674 1156.17C399.494 1157.61 400.567 1160.29 401.73 1160.91C402.893 1161.54 405.306 1165.55 400.031 1173.87L400.567 1174.06ZM96.2088 292.661C124.941 292.661 148.233 269.38 148.233 240.647C148.233 211.914 124.941 188.62 96.2088 188.62C67.4768 188.62 44.1848 211.914 44.1848 240.647C44.1848 269.38 67.4768 292.661 96.2088 292.661ZM91.9541 339.927L74.4221 322.394L91.2754 305.54L108.809 323.074L91.9541 339.927ZM99.9714 151.9L112.369 173.367L133.011 161.447L120.614 139.98L99.9714 151.9Z" fill="#83113A"/>
</svg>
