<svg viewBox="0 0 42 42" fill="none" xmlns="http://www.w3.org/2000/svg">
    <path d="M1.1242 20.8385L1 21.0058L1.1242 21.1731C6.08112 27.8497 14.6653 35.8258 20.8169 40.8681L20.9919 41.0115L21.1692 40.8708C27.5334 35.8199 35.507 27.8461 40.8589 21.1815L41 21.0058L40.8589 20.83C35.507 14.1654 27.5334 6.19165 21.1692 1.14072L20.9919 1L20.8169 1.14349C14.6653 6.18581 6.08112 14.1618 1.1242 20.8385Z"
          fill="#8A1538" stroke="#8A1538" stroke-width="0.561293"/>
    <path fill-rule="evenodd" clip-rule="evenodd"
          d="M12.5 14.9054C12.5 14.5089 12.8256 14.1875 13.2272 14.1875H27.7728C28.1744 14.1875 28.5 14.5089 28.5 14.9054V25.6747C28.5 26.0712 28.1744 26.3926 27.7728 26.3926H20.3081L16.8253 28.1117C16.5998 28.223 16.3321 28.2111 16.1177 28.0803C15.9032 27.9495 15.7728 27.7184 15.7728 27.4696V26.3926H13.2272C12.8256 26.3926 12.5 26.0712 12.5 25.6747V14.9054ZM13.9546 15.6234V24.9567H16.5C16.9017 24.9567 17.2272 25.2782 17.2272 25.6747V26.3079L19.8111 25.0325C19.9121 24.9827 20.0234 24.9567 20.1363 24.9567H27.0454V15.6234H13.9546ZM16.1363 20.2901C16.1363 19.8936 16.462 19.5721 16.8637 19.5721H24.1363C24.538 19.5721 24.8637 19.8936 24.8637 20.2901C24.8637 20.6865 24.538 21.008 24.1363 21.008H16.8637C16.462 21.008 16.1363 20.6865 16.1363 20.2901Z"
          fill="white"/>
</svg>
