<svg viewBox="0 0 42 42" fill="none" xmlns="http://www.w3.org/2000/svg">
    <path d="M1.1242 20.8385L1 21.0058L1.1242 21.1731C6.08112 27.8497 14.6653 35.8258 20.8169 40.8681L20.9919 41.0115L21.1692 40.8708C27.5334 35.8199 35.507 27.8461 40.8589 21.1815L41 21.0058L40.8589 20.83C35.507 14.1654 27.5334 6.19165 21.1692 1.14072L20.9919 1L20.8169 1.14349C14.6653 6.18581 6.08112 14.1618 1.1242 20.8385Z"
          fill="#8A1538" stroke="#8A1538" stroke-width="0.561293"/>
    <path fill-rule="evenodd" clip-rule="evenodd"
          d="M11 13.2C11 12.5373 11.4975 12 12.1111 12H29.8889C30.5025 12 31 12.5373 31 13.2V23.4C31 23.7314 30.7513 24 30.4444 24C30.1376 24 29.8889 23.7314 29.8889 23.4V13.2H12.1111V23.4C12.1111 23.7314 11.8624 24 11.5556 24C11.2487 24 11 23.7314 11 23.4V13.2Z"
          fill="white" stroke="white" stroke-width="0.75" stroke-linecap="round"/>
    <path d="M18.5437 22.1151L18.485 22.1578L18.5074 22.2269L19.4229 25.0443L19.4454 25.1134H19.518H22.4806H22.5533L22.5757 25.0443L23.4912 22.2269L23.5137 22.1578L23.4549 22.1151L21.0581 20.3732L20.9993 20.3305L20.9405 20.3732L18.5437 22.1151ZM22.6339 22.4433L22.0091 24.3647H19.9885L19.3647 22.4433L20.9993 21.2555L22.6339 22.4433Z"
          fill="white" stroke="white" stroke-width="0.2"/>
    <path d="M15.2692 20.9147C14.1177 24.08 15.7491 27.58 18.9145 28.7316C19.6034 28.9825 20.3076 29.1011 21.0003 29.1011C23.4915 29.1011 25.8307 27.5627 26.7313 25.0863H26.7314C27.8817 21.921 26.2503 18.4211 23.085 17.2695C22.4292 17.0306 21.7606 16.9117 21.1003 16.9008V16.9H21.0003H20.9003V16.9008C18.4467 16.9414 16.1578 18.4715 15.2692 20.9147ZM15.2692 20.9147L15.3632 20.9489L15.2692 20.9147ZM25.8748 25.2043L25.8749 25.1721L25.7478 25.2072L23.1647 25.9216L23.1286 25.9315L23.1079 25.9628L21.6301 28.1984L21.5574 28.3085L21.5918 28.3195C21.3963 28.3414 21.1981 28.3524 20.998 28.3524C20.7992 28.3524 20.6015 28.3413 20.405 28.3193L20.4386 28.3085L20.366 28.1985L18.8904 25.9629L18.8698 25.9316L18.8336 25.9216L16.2517 25.2072L16.1245 25.172L16.1246 25.1985C15.9643 24.8428 15.8423 24.4696 15.7622 24.086L15.7788 24.1089L15.8609 24.0058L17.5308 21.9096L17.5541 21.8803L17.5525 21.8429L17.4336 19.166L17.4277 19.0342L17.4054 19.0416C17.6935 18.7805 18.009 18.5512 18.3458 18.3581L18.3306 18.3789L18.4542 18.4252L20.9641 19.3647L20.9992 19.3778L21.0342 19.3647L23.5441 18.4252L23.6674 18.3791L23.6457 18.3493C23.9945 18.5473 24.3147 18.7814 24.603 19.0446L24.5717 19.0343L24.5659 19.1661L24.4481 21.8429L24.4465 21.8803L24.4698 21.9096L26.1385 24.0058L26.2205 24.1087L26.242 24.0789C26.1902 24.3308 26.1198 24.582 26.0292 24.8312C25.9817 24.958 25.9302 25.0825 25.8748 25.2043ZM25.2051 21.6337L25.2742 20.0541L25.4981 20.1277C25.9883 20.8939 26.2734 21.7722 26.3275 22.6826L26.1902 22.8719L25.2051 21.6337ZM19.5175 18.0235L19.6566 17.8329C20.5286 17.607 21.4686 17.607 22.3406 17.8329L22.4797 18.0235L20.9991 18.5779L19.5175 18.0235ZM16.723 20.0531L16.7932 21.6337L15.8072 22.8706L15.6708 22.6816C15.7249 21.7712 16.01 20.8928 16.5002 20.1265L16.723 20.0531ZM19.0466 27.9703C18.2016 27.6378 17.4555 27.0949 16.8758 26.3902L16.8752 26.1563L18.4002 26.5775L19.2717 27.8973L19.0466 27.9703ZM23.5981 26.5787L25.1232 26.1574L25.1225 26.3902C24.5428 27.0949 23.7966 27.6379 22.9504 27.9704L22.7257 27.8981L23.5981 26.5787Z"
          fill="white" stroke="white" stroke-width="0.2"/>
    <path fill-rule="evenodd" clip-rule="evenodd"
          d="M18.4229 28.1431C16.971 28.318 16 28.6364 16 29.0001C16 29.5523 18.2386 30 21 30C23.7614 30 26 29.5523 26 29.0001C26 28.6364 25.029 28.318 23.5771 28.1431C22.8245 28.6873 21.9427 29.0003 21 29.0003C20.0573 29.0003 19.1755 28.6873 18.4229 28.1431Z"
          fill="white"/>
</svg>
