<svg viewBox="0 0 42 42" fill="none" xmlns="http://www.w3.org/2000/svg">
    <path d="M1.1242 20.85L1 21.0173L1.1242 21.1845C6.08112 27.8612 14.6653 35.8372 20.8169 40.8796L20.9919 41.023L21.1692 40.8823C27.5334 35.8314 35.507 27.8576 40.8589 21.193L41 21.0173L40.8589 20.8415C35.507 14.1769 27.5334 6.20312 21.1692 1.1522L20.9919 1.01147L20.8169 1.15497C14.6653 6.19729 6.08112 14.1733 1.1242 20.85Z"
          fill="#8A1538" stroke="#8A1538" stroke-width="0.561293"/>
    <path d="M15 11.2615H27C27.4142 11.2615 27.75 11.5973 27.75 12.0115V30.0115C27.75 30.4257 27.4142 30.7615 27 30.7615H15C14.5858 30.7615 14.25 30.4257 14.25 30.0115V12.0115C14.25 11.5973 14.5858 11.2615 15 11.2615Z"
          fill="#EB5555" stroke="#8D0F0F" stroke-width="0.5"/>
</svg>
