<svg viewBox="0 0 24 24" fill="none" xmlns="http://www.w3.org/2000/svg">
    <g clip-path="url(#clip0_49_90)">
        <path d="M9.74997 24C9.51295 24.0012 9.2812 23.93 9.0857 23.796C8.8902 23.662 8.74026 23.4715 8.65591 23.25L6.78841 18.3937C6.75059 18.2959 6.69273 18.207 6.61854 18.1328C6.54436 18.0587 6.45549 18.0008 6.35763 17.963L1.49997 16.0941C1.2787 16.0091 1.08837 15.8591 0.95412 15.6638C0.819869 15.4685 0.748 15.237 0.748 15C0.748 14.763 0.819869 14.5315 0.95412 14.3362C1.08837 14.1409 1.2787 13.9909 1.49997 13.9059L6.35622 12.0384C6.45408 12.0006 6.54295 11.9428 6.61714 11.8686C6.69132 11.7944 6.74918 11.7055 6.787 11.6077L8.65591 6.75C8.74084 6.52872 8.89086 6.3384 9.08619 6.20415C9.28151 6.0699 9.51296 5.99803 9.74997 5.99803C9.98699 5.99803 10.2184 6.0699 10.4138 6.20415C10.6091 6.3384 10.7591 6.52872 10.844 6.75L12.7115 11.6063C12.7494 11.7041 12.8072 11.793 12.8814 11.8672C12.9556 11.9413 13.0445 11.9992 13.1423 12.037L17.9704 13.8947C18.2007 13.98 18.3991 14.1343 18.5386 14.3364C18.6781 14.5386 18.7519 14.7788 18.75 15.0244C18.7464 15.2573 18.673 15.4837 18.5393 15.6744C18.4056 15.8651 18.2177 16.0113 18 16.0941L13.1437 17.9616C13.0459 17.9994 12.957 18.0572 12.8828 18.1314C12.8086 18.2056 12.7508 18.2945 12.7129 18.3923L10.844 23.25C10.7597 23.4715 10.6097 23.662 10.4142 23.796C10.2187 23.93 9.987 24.0012 9.74997 24V24ZM4.12497 8.25C3.98601 8.24999 3.85032 8.20789 3.73576 8.12923C3.62121 8.05057 3.53317 7.93906 3.48325 7.80938L2.69294 5.75437C2.67581 5.70943 2.64938 5.66862 2.61537 5.63461C2.58136 5.6006 2.54054 5.57416 2.4956 5.55703L0.440598 4.76672C0.310931 4.71679 0.199434 4.62874 0.120794 4.51419C0.0421538 4.39964 6.10352e-05 4.26395 6.10352e-05 4.125C6.10352e-05 3.98605 0.0421538 3.85036 0.120794 3.73581C0.199434 3.62126 0.310931 3.53321 0.440598 3.48328L2.4956 2.69297C2.5405 2.67576 2.58127 2.6493 2.61527 2.6153C2.64927 2.5813 2.67573 2.54052 2.69294 2.49563L3.47622 0.458906C3.5204 0.339001 3.59641 0.233401 3.6961 0.153454C3.79578 0.073508 3.91537 0.0222386 4.042 0.00515631C4.19404 -0.0133264 4.3479 0.0194761 4.47918 0.0983622C4.61046 0.177248 4.71164 0.297703 4.76669 0.440625L5.557 2.49563C5.57421 2.54052 5.60067 2.5813 5.63467 2.6153C5.66867 2.6493 5.70945 2.67576 5.75435 2.69297L7.80935 3.48328C7.93901 3.53321 8.05051 3.62126 8.12915 3.73581C8.20779 3.85036 8.24988 3.98605 8.24988 4.125C8.24988 4.26395 8.20779 4.39964 8.12915 4.51419C8.05051 4.62874 7.93901 4.71679 7.80935 4.76672L5.75435 5.55703C5.7094 5.57416 5.66859 5.6006 5.63458 5.63461C5.60057 5.66862 5.57413 5.70943 5.557 5.75437L4.76669 7.80938C4.71677 7.93906 4.62874 8.05057 4.51418 8.12923C4.39963 8.20789 4.26393 8.24999 4.12497 8.25V8.25ZM18.75 12C18.5984 12 18.4504 11.954 18.3254 11.8681C18.2005 11.7823 18.1045 11.6606 18.0501 11.5191L16.9795 8.73609C16.9607 8.68705 16.9317 8.64252 16.8946 8.60537C16.8575 8.56823 16.8129 8.5393 16.7639 8.52047L13.9809 7.44984C13.8395 7.39536 13.718 7.29934 13.6322 7.17441C13.5465 7.04949 13.5006 6.90152 13.5006 6.75C13.5006 6.59848 13.5465 6.45051 13.6322 6.32559C13.718 6.20066 13.8395 6.10464 13.9809 6.05016L16.7639 4.97953C16.8129 4.9607 16.8575 4.93177 16.8946 4.89463C16.9317 4.85748 16.9607 4.81295 16.9795 4.76391L18.0422 2.00063C18.0907 1.86995 18.1737 1.75487 18.2824 1.66763C18.3911 1.58038 18.5214 1.52423 18.6595 1.50516C18.8254 1.48507 18.9933 1.52098 19.1365 1.60717C19.2796 1.69337 19.3899 1.82492 19.4498 1.98094L20.5204 4.76391C20.5393 4.81295 20.5682 4.85748 20.6053 4.89463C20.6425 4.93177 20.687 4.9607 20.7361 4.97953L23.519 6.05016C23.6604 6.10464 23.782 6.20066 23.8677 6.32559C23.9535 6.45051 23.9994 6.59848 23.9994 6.75C23.9994 6.90152 23.9535 7.04949 23.8677 7.17441C23.782 7.29934 23.6604 7.39536 23.519 7.44984L20.7361 8.52047C20.687 8.5393 20.6425 8.56823 20.6053 8.60537C20.5682 8.64252 20.5393 8.68705 20.5204 8.73609L19.4498 11.5191C19.3954 11.6606 19.2994 11.7823 19.1745 11.8681C19.0496 11.954 18.9016 12 18.75 12Z" fill="current"/>
    </g>
    <defs>
        <clipPath id="clip0_49_90">
            <rect width="24" height="24" fill="current"/>
        </clipPath>
    </defs>
</svg>
