<svg viewBox="0 0 42 42" fill="none" xmlns="http://www.w3.org/2000/svg">
    <path d="M1.1242 20.8385L1 21.0058L1.1242 21.1731C6.08112 27.8497 14.6653 35.8258 20.8169 40.8681L20.9919 41.0115L21.1692 40.8708C27.5334 35.8199 35.507 27.8461 40.8589 21.1815L41 21.0058L40.8589 20.83C35.507 14.1654 27.5334 6.19165 21.1692 1.14072L20.9919 1L20.8169 1.14349C14.6653 6.18581 6.08112 14.1618 1.1242 20.8385Z"
          fill="#8A1538" stroke="#8A1538" stroke-width="0.561293"/>
    <path d="M27.422 13.3375L32.4845 18.4L27.422 23.4625M31.7814 18.4H21.5157" stroke="white" stroke-width="1.6875"
          stroke-linecap="round" stroke-linejoin="round"/>
    <path d="M14.578 19.3375L9.5155 24.4L14.578 29.4625M10.2186 24.4H20.4843" stroke="white" stroke-width="1.6875"
          stroke-linecap="round" stroke-linejoin="round"/>
</svg>
