<svg viewBox="0 0 42 42" fill="none" xmlns="http://www.w3.org/2000/svg">
    <path d="M1.1242 20.8385L1 21.0058L1.1242 21.1731C6.08112 27.8497 14.6653 35.8258 20.8169 40.8681L20.9919 41.0115L21.1692 40.8708C27.5334 35.8199 35.507 27.8461 40.8589 21.1815L41 21.0058L40.8589 20.83C35.507 14.1654 27.5334 6.19165 21.1692 1.14072L20.9919 1L20.8169 1.14349C14.6653 6.18581 6.08112 14.1618 1.1242 20.8385Z"
          fill="#8A1538" stroke="#8A1538" stroke-width="0.561293"/>
    <path d="M21 30.124C25.4183 30.124 29 26.5422 29 22.124C29 17.7057 25.4183 14.124 21 14.124C16.5817 14.124 13 17.7057 13 22.124C13 26.5422 16.5817 30.124 21 30.124Z"
          stroke="white" stroke-width="1.68421"/>
    <path d="M21.8557 12.141H20.1443V13.8524H21.8557V12.141Z" fill="white"/>
    <path d="M14.3457 15.7343C14.053 15.3729 14.1088 14.8426 14.4703 14.55L14.7877 14.293C15.1492 14.0003 15.6794 14.0562 15.9721 14.4176L16.3806 14.9223L14.7542 16.239L14.3457 15.7343Z"
          fill="white"/>
    <path d="M19.0035 12.1409C19.0035 11.5108 19.5142 11 20.1444 11H21.8557C22.4858 11 22.9967 11.5108 22.9967 12.1409V12.7114H19.0035V12.1409Z"
          fill="white"/>
    <path d="M21.4211 17.7368V23.1447L23.5263 25.25" stroke="white" stroke-width="1.68421" stroke-linecap="round"/>
</svg>
