<svg viewBox="0 0 42 42" fill="none" xmlns="http://www.w3.org/2000/svg">
    <path d="M1.1242 20.8385L1 21.0058L1.1242 21.1731C6.08112 27.8497 14.6653 35.8258 20.8169 40.8681L20.9919 41.0115L21.1692 40.8708C27.5334 35.8199 35.507 27.8461 40.8589 21.1815L41 21.0058L40.8589 20.83C35.507 14.1654 27.5334 6.19165 21.1692 1.14072L20.9919 1L20.8169 1.14349C14.6653 6.18581 6.08112 14.1618 1.1242 20.8385Z"
          fill="#8A1538" stroke="#8A1538" stroke-width="0.561293"/>
    <path d="M31 27.5V15.5C31 15.2239 30.7761 15 30.5 15L12.5 15C12.2239 15 12 15.2239 12 15.5V27.5C12 27.7761 12.2239 28 12.5 28H30.5C30.7761 28 31 27.7761 31 27.5Z"
          stroke="white"/>
    <path d="M16.078 23.3564L14.542 18.9164H13.342L15.39 24.5004H16.75L18.798 18.9164H17.606L16.078 23.3564ZM23.2615 24.5004H24.4455L22.4375 18.9084H21.1335L19.1255 24.5004H20.3015L20.6695 23.4364H22.8935L23.2615 24.5004ZM22.5895 22.5404H20.9735L21.7815 20.2044L22.5895 22.5404ZM28.156 20.6524C28.156 21.1564 27.876 21.4844 27.252 21.4844H26.316V19.8444H27.252C27.876 19.8444 28.156 20.1564 28.156 20.6524ZM25.196 18.9164V24.5004H26.316V22.3244H26.844L28.076 24.5004H29.372L28.036 22.2364C28.932 21.9964 29.308 21.3084 29.308 20.6284C29.308 19.6924 28.636 18.9164 27.292 18.9164H25.196Z"
          fill="white"/>
</svg>
