<svg viewBox="0 0 42 42" fill="none" xmlns="http://www.w3.org/2000/svg">
    <path d="M1.1242 20.8385L1 21.0058L1.1242 21.1731C6.08112 27.8497 14.6653 35.8258 20.8169 40.8681L20.9919 41.0115L21.1692 40.8708C27.5334 35.8199 35.507 27.8461 40.8589 21.1815L41 21.0058L40.8589 20.83C35.507 14.1654 27.5334 6.19165 21.1692 1.14072L20.9919 1L20.8169 1.14349C14.6653 6.18581 6.08112 14.1618 1.1242 20.8385Z"
          fill="#8A1538" stroke="#8A1538" stroke-width="0.561293"/>
    <path d="M18.9774 17.4003C19.539 17.4003 19.9939 16.9716 19.9939 16.4426V13.9578C19.9939 13.4286 19.539 13 18.9774 13C18.4159 13 17.9609 13.4286 17.9609 13.9578V16.4358C17.9609 16.9649 18.4159 17.3936 18.9774 17.3936V17.4003Z"
          fill="white"/>
    <path d="M21.245 17.3064C21.3587 17.3466 21.4796 17.3667 21.6004 17.3667C21.7497 17.3667 21.8918 17.3399 22.0269 17.2797C22.2757 17.1725 22.4605 16.9783 22.56 16.7371L22.9297 15.7995C23.0221 15.5584 23.0149 15.2972 22.9012 15.0628C22.7875 14.8284 22.5813 14.6542 22.3326 14.5671C22.0767 14.4801 21.7994 14.4867 21.5506 14.5939C21.3019 14.701 21.117 14.8953 21.0175 15.1364L20.6479 16.0741C20.5555 16.3152 20.5626 16.5764 20.6763 16.8108C20.7901 17.0452 20.9962 17.2193 21.2521 17.3131L21.245 17.3064Z"
          fill="white"/>
    <path d="M15.3665 16.7438C15.4589 16.9849 15.6508 17.1792 15.8996 17.2863C16.0347 17.3466 16.1769 17.3734 16.3261 17.3734C16.447 17.3734 16.5678 17.3533 16.6815 17.3131C16.9374 17.2261 17.1436 17.0452 17.2573 16.8108C17.371 16.5764 17.3853 16.3152 17.2857 16.0741L16.9161 15.1364C16.8237 14.8953 16.6318 14.701 16.383 14.5939C16.1342 14.4867 15.857 14.4801 15.6011 14.5671C15.3452 14.6542 15.1462 14.835 15.0324 15.0694C14.9187 15.3038 14.9045 15.5651 15.004 15.8062L15.3736 16.7438H15.3665Z"
          fill="white"/>
    <path d="M27.749 17.9428H21.1028C20.4914 17.9428 19.9796 18.3647 19.873 18.9139H18.7855V18.8067C18.7855 18.5723 18.6788 18.3514 18.4869 18.204C18.295 18.05 18.0462 17.9896 17.8045 18.0299C15.736 18.358 14.0727 19.6707 13.3547 21.5393C12.2458 24.4193 13.8239 27.614 16.8804 28.6588C17.5273 28.8798 18.2026 28.9937 18.8921 28.9937C21.3658 28.9937 23.5907 27.5269 24.4365 25.3369C24.7351 24.5599 24.8488 23.7294 24.7706 22.9123H27.7561C28.4385 22.9056 29.0001 22.3765 29.0001 21.7336V19.1149C29.0001 18.4718 28.4385 17.9428 27.7561 17.9428H27.749ZM22.9012 22.2091C23.1286 22.9458 23.1642 23.6826 23.0007 24.3322C22.695 25.5311 21.8491 26.5156 20.6763 27.0313C19.4323 27.5738 18.0249 27.5203 16.8094 26.884C15.1958 26.0334 14.3499 24.1849 14.8048 22.4837C15.1247 21.2781 15.9706 20.3271 17.1292 19.8582C17.2216 20.24 17.5344 20.5013 17.9467 20.5013H20.4843C20.7687 20.5013 21.0388 20.3941 21.2378 20.1999C21.4368 20.0056 21.5435 19.7511 21.5221 19.5234H27.3083V21.3184H22.631L22.9012 22.2024V22.2091Z"
          fill="white"/>
</svg>
