<svg viewBox="0 0 42 42" fill="none" xmlns="http://www.w3.org/2000/svg">
    <path d="M1.1242 20.8385L1 21.0058L1.1242 21.1731C6.08112 27.8497 14.6653 35.8258 20.8169 40.8681L20.9919 41.0115L21.1692 40.8708C27.5334 35.8199 35.507 27.8461 40.8589 21.1815L41 21.0058L40.8589 20.83C35.507 14.1654 27.5334 6.19165 21.1692 1.14072L20.9919 1L20.8169 1.14349C14.6653 6.18581 6.08112 14.1618 1.1242 20.8385Z" fill="#8A1538" stroke="#8A1538" stroke-width="0.561293"/>
    <path d="M27 11H15C14.4477 11 14 11.4477 14 12V30C14 30.5523 14.4477 31 15 31H27C27.5523 31 28 30.5523 28 30V12C28 11.4477 27.5523 11 27 11Z" fill="#FED130"/>
</svg>
